# xmcd CD database file
#
# Track frame offsets:
#	150
#	16953
#	37227
#	59841
#	82605
#	106819
#	123652
#	144197
#	161924
#	183006
#	202850
#	225315
#	244926
#
# Disc length: 3521 seconds
#
# Revision: 0
# Processed by: cddbd v1.5.2PL0 Copyright (c) Steve Scherf et al.
# Submitted via: CDex 1.51
#
DISCID=a30dbf0d
DTITLE=Guaco - Amazonas
DYEAR=1999
DGENRE=Salsa
TTITLE0=Deshonestidad
TTITLE1=Esperandote
TTITLE2=Si Usted La Viera
TTITLE3=Deja
TTITLE4=Ese Rumbo Es De Los Dos
TTITLE5=Ella Sabe
TTITLE6=Remembranzas
TTITLE7=Me Cuentan
TTITLE8=Cuando Recuerdo
TTITLE9=Seguire Sin Sonar
TTITLE10=Causas
TTITLE11=Pronto Llegara
TTITLE12=Acere Bongo
EXTD=YEAR: 1999
EXTT0=
EXTT1=
EXTT2=
EXTT3=
EXTT4=
EXTT5=
EXTT6=
EXTT7=
EXTT8=
EXTT9=
EXTT10=
EXTT11=
EXTT12=
PLAYORDER=
